<svg xmlns="http://www.w3.org/2000/svg" xmlns:xlink="http://www.w3.org/1999/xlink" width="60" zoomAndPan="magnify" viewBox="0 0 224.87999 225" height="60" preserveAspectRatio="xMidYMid meet" version="1.0"><defs><g/><clipPath id="0b0ea8b51e"><path d="M 0 0.0585938 L 224.761719 0.0585938 L 224.761719 224.9375 L 0 224.9375 Z M 0 0.0585938 " clip-rule="nonzero"/></clipPath><clipPath id="60baad0a25"><path d="M 24.597656 6.570312 L 194.003906 6.570312 L 194.003906 184.925781 L 24.597656 184.925781 Z M 24.597656 6.570312 " clip-rule="nonzero"/></clipPath></defs><g clip-path="url(#0b0ea8b51e)"><path fill="#ffffff" d="M 0 0.0585938 L 224.878906 0.0585938 L 224.878906 232.4375 L 0 232.4375 Z M 0 0.0585938 " fill-opacity="1" fill-rule="nonzero"/><path fill="#ffffff" d="M 0 0.0585938 L 224.878906 0.0585938 L 224.878906 224.941406 L 0 224.941406 Z M 0 0.0585938 " fill-opacity="1" fill-rule="nonzero"/><path fill="#ffffff" d="M 0 0.0585938 L 224.878906 0.0585938 L 224.878906 224.941406 L 0 224.941406 Z M 0 0.0585938 " fill-opacity="1" fill-rule="nonzero"/></g><path fill="#ccccc9" d="M 133.890625 143.457031 L 126.832031 143.320312 L 127.160156 126.007812 C 127.261719 120.738281 130.703125 116.128906 135.71875 114.53125 L 176.867188 101.4375 L 176.867188 89.699219 L 104.058594 89.699219 L 104.058594 82.636719 L 177.285156 82.636719 C 180.945312 82.636719 183.921875 85.617188 183.921875 89.28125 L 183.921875 101.742188 C 183.921875 104.648438 182.0625 107.191406 179.296875 108.074219 L 137.859375 121.257812 C 135.722656 121.9375 134.261719 123.902344 134.21875 126.140625 L 133.890625 143.457031 " fill-opacity="1" fill-rule="nonzero"/><path fill="#ffab11" d="M 130.617188 182.515625 C 127.792969 182.515625 125.503906 180.226562 125.503906 177.402344 L 125.503906 140.703125 C 125.503906 137.878906 127.792969 135.589844 130.617188 135.589844 C 133.441406 135.589844 135.730469 137.878906 135.730469 140.703125 L 135.730469 177.402344 C 135.730469 180.226562 133.441406 182.515625 130.617188 182.515625 " fill-opacity="1" fill-rule="nonzero"/><g clip-path="url(#60baad0a25)"><path fill="#ffab11" d="M 120.023438 39.75 L 111.808594 39.75 L 111.808594 31.53125 L 120.023438 31.53125 Z M 120.023438 52.632812 L 111.808594 52.632812 L 111.808594 44.410156 L 120.023438 44.410156 Z M 106.785156 39.75 L 98.570312 39.75 L 98.570312 31.53125 L 106.785156 31.53125 Z M 106.785156 52.632812 L 98.570312 52.632812 L 98.570312 44.410156 L 106.785156 44.410156 Z M 192.976562 63.707031 L 112.210938 7.484375 C 110.460938 6.265625 108.140625 6.265625 106.394531 7.484375 L 25.625 63.707031 C 23.722656 64.996094 24.636719 67.96875 26.933594 67.96875 L 48.515625 67.96875 C 50.355469 67.96875 51.847656 69.460938 51.847656 71.300781 L 51.847656 147.167969 L 51.921875 147.167969 L 51.921875 163.582031 C 51.921875 167.027344 54.742188 169.875 58.183594 169.804688 C 61.515625 169.738281 64.195312 167.015625 64.195312 163.667969 L 64.195312 154.84375 L 64.273438 154.84375 L 64.273438 148.671875 C 64.273438 145.226562 67.089844 142.34375 70.53125 142.410156 C 73.863281 142.476562 76.546875 145.199219 76.546875 148.550781 L 76.546875 178.664062 C 76.546875 182.105469 79.363281 184.988281 82.804688 184.925781 C 86.136719 184.859375 88.820312 182.136719 88.820312 178.785156 L 88.820312 129.449219 C 88.820312 126.003906 91.640625 123.15625 95.082031 123.226562 C 98.414062 123.292969 101.09375 126.015625 101.09375 129.363281 L 101.09375 155.179688 C 101.09375 158.625 103.910156 161.507812 107.351562 161.441406 C 110.683594 161.378906 113.367188 158.652344 113.367188 155.300781 L 113.398438 107.9375 C 113.402344 105.894531 111.746094 104.238281 109.707031 104.238281 L 103.367188 104.238281 C 93.367188 104.238281 85.261719 96.132812 85.261719 86.128906 C 85.261719 76.125 93.367188 68.015625 103.367188 68.015625 L 113.425781 68.015625 L 191.671875 67.96875 C 193.96875 67.96875 194.878906 64.996094 192.976562 63.707031 " fill-opacity="1" fill-rule="nonzero"/></g><path fill="#ffab11" d="M 162.636719 97.996094 L 104.09375 97.996094 C 97.566406 97.996094 92.273438 92.699219 92.273438 86.167969 C 92.273438 79.636719 97.566406 74.339844 104.09375 74.339844 L 162.636719 74.339844 C 169.164062 74.339844 174.457031 79.636719 174.457031 86.167969 C 174.457031 92.699219 169.164062 97.996094 162.636719 97.996094 " fill-opacity="1" fill-rule="nonzero"/><g fill="#000000" fill-opacity="1"><g transform="translate(28.83104, 218.267849)"><g><path d="M 12 0 L 12 -10.046875 L 23.71875 -10.046875 L 23.71875 -16.46875 L 12 -16.46875 L 12 -21.28125 L 25.625 -21.28125 L 25.625 -28 L 3.015625 -28 L 3.015625 0 Z M 12 0 "/></g></g></g><g fill="#000000" fill-opacity="1"><g transform="translate(55.961629, 218.267849)"><g><path d="M 40.484375 -28 L 31.53125 -28 L 28.53125 -12.125 L 28.34375 -12.125 L 24.96875 -28 L 16.109375 -28 L 12.9375 -12.125 L 12.78125 -12.125 L 9.5625 -28 L 0.203125 -28 L 6.75 0 L 16.65625 0 L 20.265625 -17.046875 L 20.421875 -17.046875 L 24.03125 0 L 33.9375 0 Z M 40.484375 -28 "/></g></g></g><g fill="#000000" fill-opacity="1"><g transform="translate(96.637651, 218.267849)"><g><path d="M 16.921875 -28.484375 C 14.535156 -28.484375 12.40625 -28.175781 10.53125 -27.5625 C 8.664062 -26.945312 7.085938 -26.03125 5.796875 -24.8125 C 4.503906 -23.601562 3.519531 -22.09375 2.84375 -20.28125 C 2.164062 -18.476562 1.828125 -16.382812 1.828125 -14 C 1.828125 -11.601562 2.164062 -9.5 2.84375 -7.6875 C 3.519531 -5.882812 4.503906 -4.375 5.796875 -3.15625 C 7.085938 -1.945312 8.664062 -1.035156 10.53125 -0.421875 C 12.40625 0.191406 14.535156 0.5 16.921875 0.5 C 19.304688 0.5 21.4375 0.191406 23.3125 -0.421875 C 25.195312 -1.035156 26.785156 -1.945312 28.078125 -3.15625 C 29.367188 -4.375 30.351562 -5.882812 31.03125 -7.6875 C 31.71875 -9.5 32.0625 -11.601562 32.0625 -14 C 32.0625 -16.382812 31.71875 -18.476562 31.03125 -20.28125 C 30.351562 -22.09375 29.367188 -23.601562 28.078125 -24.8125 C 26.785156 -26.03125 25.195312 -26.945312 23.3125 -27.5625 C 21.4375 -28.175781 19.304688 -28.484375 16.921875 -28.484375 Z M 16.921875 -21.78125 C 17.921875 -21.78125 18.789062 -21.617188 19.53125 -21.296875 C 20.269531 -20.984375 20.882812 -20.539062 21.375 -19.96875 C 21.875 -19.394531 22.242188 -18.710938 22.484375 -17.921875 C 22.734375 -17.128906 22.859375 -16.253906 22.859375 -15.296875 L 22.859375 -12.6875 C 22.859375 -11.738281 22.734375 -10.863281 22.484375 -10.0625 C 22.242188 -9.269531 21.875 -8.585938 21.375 -8.015625 C 20.882812 -7.453125 20.269531 -7.007812 19.53125 -6.6875 C 18.789062 -6.375 17.921875 -6.21875 16.921875 -6.21875 C 15.929688 -6.21875 15.066406 -6.375 14.328125 -6.6875 C 13.597656 -7.007812 12.988281 -7.453125 12.5 -8.015625 C 12.007812 -8.585938 11.640625 -9.269531 11.390625 -10.0625 C 11.148438 -10.863281 11.03125 -11.738281 11.03125 -12.6875 L 11.03125 -15.296875 C 11.03125 -16.253906 11.148438 -17.128906 11.390625 -17.921875 C 11.640625 -18.710938 12.007812 -19.394531 12.5 -19.96875 C 12.988281 -20.539062 13.597656 -20.984375 14.328125 -21.296875 C 15.066406 -21.617188 15.929688 -21.78125 16.921875 -21.78125 Z M 16.921875 -21.78125 "/></g></g></g><g fill="#000000" fill-opacity="1"><g transform="translate(130.521095, 218.267849)"><g><path d="M 29.578125 -19.40625 C 29.578125 -20.550781 29.378906 -21.640625 28.984375 -22.671875 C 28.585938 -23.703125 27.988281 -24.609375 27.1875 -25.390625 C 26.394531 -26.179688 25.410156 -26.8125 24.234375 -27.28125 C 23.054688 -27.757812 21.691406 -28 20.140625 -28 L 3.015625 -28 L 3.015625 0 L 12 0 L 12 -10.21875 L 15.34375 -10.21875 L 20.296875 0 L 30.390625 0 L 24.171875 -11.71875 C 25.078125 -12.050781 25.867188 -12.484375 26.546875 -13.015625 C 27.222656 -13.554688 27.785156 -14.164062 28.234375 -14.84375 C 28.679688 -15.519531 29.015625 -16.242188 29.234375 -17.015625 C 29.460938 -17.785156 29.578125 -18.582031 29.578125 -19.40625 Z M 20.421875 -19.03125 C 20.421875 -18.65625 20.351562 -18.304688 20.21875 -17.984375 C 20.09375 -17.671875 19.910156 -17.398438 19.671875 -17.171875 C 19.441406 -16.941406 19.175781 -16.757812 18.875 -16.625 C 18.570312 -16.5 18.25 -16.4375 17.90625 -16.4375 L 12 -16.4375 L 12 -21.59375 L 17.90625 -21.59375 C 18.25 -21.59375 18.570312 -21.53125 18.875 -21.40625 C 19.175781 -21.28125 19.441406 -21.101562 19.671875 -20.875 C 19.910156 -20.65625 20.09375 -20.382812 20.21875 -20.0625 C 20.351562 -19.75 20.421875 -19.40625 20.421875 -19.03125 Z M 20.421875 -19.03125 "/></g></g></g><g fill="#000000" fill-opacity="1"><g transform="translate(162.160219, 218.267849)"><g><path d="M 12 -28 L 3.015625 -28 L 3.015625 0 L 12 0 L 12 -6.265625 L 16.890625 -10.25 L 22.703125 0 L 33.3125 0 L 23.0625 -16.46875 L 33.125 -28 L 21.96875 -28 L 12 -16.03125 Z M 12 -28 "/></g></g></g></svg>